<svg version="1.1" xmlns="http://www.w3.org/2000/svg" viewBox="0 0 192.754 192.754" xml:space="preserve">
    <path fill="#FFFFFF" d="M38.033,110.157l-1.481,4.35c-0.468,1.438-1.105,2.535-1.905,3.291c-0.795,0.764-1.726,1.143-2.792,1.143
	c-1.356,0-2.474-0.447-3.353-1.348c-0.876-0.891-1.316-2.027-1.316-3.381c0-0.553,0.039-1.066,0.122-1.543
	c0.076-0.469,0.196-0.908,0.355-1.299l11.195-30.403c0.81-2.188,1.816-3.791,3.033-4.818c1.21-1.023,2.702-1.537,4.47-1.537
	c1.679,0,3.131,0.485,4.366,1.46c1.224,0.976,2.178,2.391,2.851,4.242l10.899,30.908c0.22,0.649,0.38,1.233,0.493,1.739
	c0.106,0.517,0.159,0.97,0.159,1.363c0,1.359-0.455,2.473-1.363,3.326c-0.906,0.855-2.064,1.287-3.486,1.287
	c-1.256,0-2.308-0.393-3.146-1.18c-0.832-0.795-1.497-1.998-1.99-3.609l-1.217-3.994H38.033V110.157z M40.811,101.12h10.278
	l-4.961-15.956L40.811,101.12L40.811,101.12z M78.632,101.26v10.582c0,2.347-0.402,4.084-1.212,5.228
	c-0.81,1.146-2.041,1.72-3.691,1.72c-1.656,0-2.89-0.574-3.698-1.72c-0.81-1.144-1.212-2.881-1.212-5.228V82.117
	c0-2.619,0.499-4.426,1.506-5.409c1.005-0.984,2.76-1.476,5.265-1.476h7.617c5.106,0,9.115,1.202,12.026,3.616
	c2.914,2.413,4.373,5.688,4.373,9.825c0,3.071-0.908,5.644-2.731,7.701c-1.822,2.056-4.342,3.359-7.549,3.912l7.738,8.598
	c0.983,1.084,1.717,2.097,2.2,3.035c0.484,0.931,0.729,1.793,0.729,2.578c0,1.303-0.447,2.398-1.334,3.283
	c-0.884,0.887-1.997,1.33-3.333,1.33c-0.869,0-1.701-0.264-2.504-0.799c-0.794-0.531-1.718-1.439-2.761-2.717L78.632,101.26
	L78.632,101.26z M78.632,94.702h4.523c1.982,0,3.517-0.461,4.599-1.39c1.081-0.923,1.626-2.231,1.626-3.927
	c0-1.633-0.531-2.903-1.598-3.796c-1.059-0.901-2.563-1.346-4.515-1.346h-4.636L78.632,94.702L78.632,94.702z M111.991,110.157
	l-1.482,4.35c-0.469,1.438-1.105,2.535-1.906,3.291c-0.793,0.764-1.725,1.143-2.791,1.143c-1.355,0-2.473-0.447-3.352-1.348
	c-0.877-0.891-1.316-2.027-1.316-3.381c0-0.553,0.039-1.066,0.123-1.543c0.074-0.469,0.195-0.908,0.354-1.299l11.195-30.403
	c0.809-2.188,1.816-3.791,3.033-4.818c1.211-1.023,2.701-1.537,4.471-1.537c1.678,0,3.133,0.485,4.365,1.46
	c1.225,0.976,2.18,2.391,2.852,4.242l10.9,30.908c0.217,0.649,0.377,1.233,0.49,1.739c0.107,0.517,0.16,0.97,0.16,1.363
	c0,1.359-0.455,2.473-1.361,3.326c-0.908,0.855-2.066,1.287-3.488,1.287c-1.256,0-2.307-0.393-3.146-1.18
	c-0.832-0.795-1.495-1.998-1.989-3.609l-1.218-3.994h-15.893V110.157z M114.767,101.12h10.276l-4.961-15.956L114.767,101.12
	L114.767,101.12z M142.775,81.647c0-2.345,0.401-4.092,1.213-5.242c0.81-1.158,2.041-1.731,3.697-1.731
	c1.649,0,2.881,0.573,3.69,1.731c0.81,1.15,1.211,2.896,1.211,5.242v27.542h8.275c2.367,0,4.115,0.369,5.256,1.119
	c1.144,0.748,1.719,1.883,1.719,3.403c0,1.535-0.576,2.679-1.719,3.424c-1.141,0.753-2.889,1.121-5.256,1.121h-11.438
	c-2.541,0-4.281-0.43-5.229-1.301c-0.944-0.86-1.422-2.488-1.422-4.871V81.647H142.775z"/>
</svg>

