<svg xmlns="http://www.w3.org/2000/svg" viewBox="0 0 1000 750">
    <rect x="8.437" y="12" width="976" height="726" rx="60" ry="60" style="fill: #fff"/>
    <path
        d="M80.692,19.375c-2.467.02-61.326,1.055-61.326,61.369V668.254c.015,2.477,1.059,61.379,61.325,61.379H917.26c2.512-.02,61.377-1.074,61.377-61.379V80.744c-.021-2.474-1.064-61.369-61.336-61.369ZM917.3,749H80.692C16.87,749,0,696.178,0,668.254V80.744C0,16.871,52.784,0,80.692,0H917.3C981.122,0,998,52.812,998,80.744V668.254C998,732.129,945.2,749,917.3,749"
        style="fill: #e6001f"/>
    <path
        d="M906.643,540.328h-71.4v83.531h31.342V593.63h38.828V574.444H866.589v-14.91h40.055V540.328Zm-79.854,28.526c0-21.029-15.73-28.525-30.438-28.525h-55.41V623.86H772.3V599.487h23.916c8.822,0,16.289-2.492,21.557-7.191,5.985-5.31,9.014-13.191,9.014-23.442M733,623.859l-29.8-83.531H659.271l-29.314,83.531h31.119l5.188-18.336h28.344l5.592,18.336ZM622.6,540.328H595.86v59.727h-1.3l-15.641-59.727H531.3v83.531h26.689V562.431h1.328l16.541,61.428H622.6l0-83.531ZM522.7,597.5c0-20.139-17.6-23.521-30.47-25.994-7.876-1.5-14.091-2.691-14.091-7.252,0-6.2,9.846-6.2,14.577-6.2a77.341,77.341,0,0,1,24.494,4.031v-20.4a143.173,143.173,0,0,0-27.421-2.795c-28.517,0-42.959,9.016-42.959,26.822,0,20.221,17.474,23.766,30.258,26.357,7.962,1.621,14.271,2.9,14.271,7.617,0,5.812-10.626,6.441-15.188,6.441a79.8,79.8,0,0,1-28.5-5.289v20.6a147.832,147.832,0,0,0,34.34,3.891c7.719,0,18.735-.992,27.426-5.633,8.794-4.719,13.263-12.174,13.263-22.2m-82.523,0c0-20.139-17.6-23.521-30.455-25.994-7.871-1.5-14.1-2.691-14.1-7.252,0-6.2,9.83-6.2,14.552-6.2a77.419,77.419,0,0,1,24.534,4.031v-20.4a144.8,144.8,0,0,0-27.417-2.795c-28.536,0-43.007,9.016-43.007,26.822,0,20.221,17.488,23.766,30.269,26.357,7.978,1.621,14.283,2.9,14.283,7.617,0,5.812-10.6,6.441-15.164,6.441a79.921,79.921,0,0,1-28.536-5.289v20.6a147.951,147.951,0,0,0,34.365,3.891c7.714,0,18.729-.992,27.4-5.633,8.8-4.7,13.273-12.174,13.273-22.2m-85.535,7.15H312.176V591.927h39.813V572.741H312.176V559.532h41.638V540.326H281.568v83.531h73.077Zm-82.706,19.207a67.888,67.888,0,0,1-2.715-11.854l-.041-.244c-1.048-6.076-2.117-12.355-4.867-17.32a19.872,19.872,0,0,0-13.994-8.854l-.091-.02a.421.421,0,0,1-.354-.428v-.77a.083.083,0,0,1,.041-.08l.425-.1c13.321-3.225,19.8-10.373,19.8-21.883,0-14.788-10.53-21.98-32.177-21.98H186.025v83.531h31.336v-28.77h7.881c3.92,0,7.613.365,9.75,4.722,1.732,3.263,2.512,9.808,3.206,15.6l.061.547c.375,2.979.719,5.836,1.175,7.9l32.505,0Zm-96.02-83.531H104.534v83.531H135.86V593.63h38.853V574.444H135.86v-14.91h40.059V540.328Zm-34.624-62.4a1.485,1.485,0,0,0,.811,1.316c11.573,5.977,168.383,20.686,361.927,20.686,193.65,0,350.4-14.709,361.908-20.686a1.491,1.491,0,0,0,.039-2.631c-5.834-3.2-45.361-9.38-109.635-15.007l-22.031-1.824c-35.293-2.775-72.074-4.943-109.281-6.422l-23.582-.861c-32.455-1.043-64.871-1.59-96.35-1.59-40.346,0-81.829.861-123.3,2.553l-37.188,1.752-49.636,3.049L252.7,461.587c-64.851,5.647-104.732,11.827-110.618,15.027a1.469,1.469,0,0,0-.783,1.315M925.221,655.748c-29.4,14.262-123.838,21.719-201.928,21.719L508.3,678.58h-7.086l-213.172-1.113c-74.561,0-180.853-9.48-206.121-21.719-11.8-5.713-15.443-12.055-12.47-36.244,3.312-26.764,23.526-115.582,27.9-133.37,4.153-17.6,33.768-31.7,88.018-41.86l13.751-2.411c55.653-9.1,131.718-14.313,226.092-15.529l14.063-.142,29.26-.132,28.9.12,7.872.041h1.9l7.875-.041,26.5-.1,9.836.02,11.926.041c91.33.519,167.027,4.579,225,12.057l9.521,1.307c34.379,4.812,61.721,10.93,81.26,18.193L886,460.43c17.453,7.451,27.463,16.1,29.781,25.686,4.145,18.152,21.121,112.218,23.906,132.417,3.451,25.078-5.92,33.082-14.469,37.215M795.479,569.482c0,10.211-8.691,11.525-16.26,11.525H771.43V558.8h7.658c8.529,0,16.391,1.28,16.391,10.68M238.82,567.4c0,9.2-6.823,9.967-13.827,9.967h-9.1V558.056h9.583c6.6,0,13.341,1.114,13.341,9.34m442.616-9.584,9.441,28.547H670.385l9.582-28.547c.15-.445.477-.467.477-.467h.506s.323.022.486.467M438.19,51.358s-.208.142-.218.152l-.79.607a.962.962,0,0,0-.289.334c-11.411,22.448-27.979,68.984-27.285,97.56a1.538,1.538,0,0,0,.426,1.023l.208.152c7.243,5.2,53.328,24.635,74.512,33.236l2.282.921a.99.99,0,0,0,.922-.091,1.009,1.009,0,0,0,.456-.8l.012-.719c0-.01-.012-1.763-.012-1.763.554-27.391-7.663-64.811-20.913-95.332-5.154-10.991-10.609-20.037-15.786-26.155-4.4-5.186-8.673-8.367-12.363-9.228a1.983,1.983,0,0,0-1.162.1m274.263,316.1-.02.02c-10.5,6.95-25.791,15.5-38.949,16.674l-.6.041a.977.977,0,0,0-.75.436.948.948,0,0,0-.131.861l.182.588,2.057,5.348a38.479,38.479,0,0,0,12.338,14.486l.387.273a1,1,0,0,0,1.355-.213l.283-.375c2.736-3.414,6.869-5.673,10.535-7.658l2.725-1.52a19.429,19.429,0,0,0,5.633-4.832l1.512-2.359c1.062-1.793,1.982-3.323,3.119-3.323l1.469.456c1.084.576,2.139,1.6,1.531,4.68-.9,4.518-4.4,8.276-7.8,11.9a48.416,48.416,0,0,0-5.834,7.132l-.385.618a1.039,1.039,0,0,0-.051.932,1.007,1.007,0,0,0,.719.577l.73.132a57.291,57.291,0,0,0,10.09.912l7.951-.6c14.24-8.549,34.553-31.139,33.561-46.03-.324-4.883-2.8-8.276-7.557-10.373a16.949,16.949,0,0,0-6.646-1.347c-8.531,0-17.293,5.824-27.453,12.56M285,335.783h-.01c-8.924,3-14.141,8.347-14.688,15.063-.664,7.871,5.338,16.177,15.661,21.7-.021-.02,3.631,1.56,3.631,1.56a.9.9,0,0,0,1.039-.233l.633-.638a.958.958,0,0,0,.238-1.043l-1.692-4.173a49.218,49.218,0,0,1-3.373-9.9c-.755-4.021,0-7.232,1.1-8.215a2.676,2.676,0,0,1,1.682-.841c.729,0,1.463.679,2,1.833,0,.01.618,2.259.618,2.259a24.209,24.209,0,0,0,4.361,10.109,124.082,124.082,0,0,1,9.552,13.888,1.54,1.54,0,0,0,.829.668l9.938.962a.935.935,0,0,0,.973-.648l.346-.881a1.026,1.026,0,0,0-.314-1.134c-5.308-4.234-7.344-10.606-8.742-16.866-.01-.03-.77-3.374-.77-3.374l-.218-1.043c-2.312-11.163-5.052-20.392-15.154-20.392A25.855,25.855,0,0,0,285,335.783M109.493,141.027l.329.233c21.389,14.577,57.624,46.333,71.212,71.3l.122.223a1.59,1.59,0,0,1-.1,1.165c-4.629,9.106-43.888,54.853-54.012,66.32l-.446.517a1.013,1.013,0,0,1-1.6-.142l-.506-.81-2.644-4.528c-.01-.01-.208-.354-.208-.365-10.4-19.267-18.816-47.012-22.508-74.18-2.016-14.911-2.5-27.807-1.454-38.362l.111-.75.436-2.715c1.57-7.911,4.295-13.321,7.729-15.519l2.264-2.27a1,1,0,0,1,1.277-.121"
        style="fill: #e6001f"/>
    <path
        d="M504.027,498.431c-189.958,0-349.016-14.222-361.232-20.5,5.9-3.2,47.134-9.381,110.035-14.864,13.184-1.137,27.3-2.261,42.256-3.3,15.676-1.1,32.264-2.138,49.616-3.059q18.051-.957,37.166-1.743c38.584-1.58,80.106-2.542,123.24-2.542,33.266,0,65.57.578,96.293,1.57,7.963.263,15.834.557,23.572.859,40.043,1.611,76.945,3.882,109.219,6.412q11.429.912,22.033,1.833c62.369,5.477,103.2,11.636,109.047,14.835-12.186,6.283-171.245,20.505-361.245,20.505m258.467-37.454c-1.559-.144-3.018-.273-4.295-.375-4.559-.4-9.6-.831-15.092-1.276-30.391-2.461-74.475-5.45-127.516-7.4q-10.275-.379-20.988-.709c-27.918-.841-57.953-1.355-89.5-1.355-41.313,0-80.112.892-114.994,2.219q-14.442.563-27.941,1.2c-34.522,1.631-64.188,3.6-87.344,5.379-8.96.688-16.978,1.347-23.886,1.955-2.365.19-5.227.454-8.463.737-32.375,2.947-102.726,10.1-102.726,16.588,0,1.521,0,3.828,30.84,7.68,19.763,2.45,47.372,4.941,79.833,7.15,45.007,3.061,137.792,8.227,253.6,8.227s208.6-5.167,253.605-8.227c32.455-2.209,60.049-4.7,79.832-7.15,30.824-3.852,30.824-6.158,30.824-7.68,0-6.787-76.1-14.29-105.8-16.953M924.572,654.41c-29.205,14.162-123.359,21.557-201.279,21.557-33.469,0-71.109.307-107.537.566-36.375.264-74.01.547-107.463.547h-7.074c-33.267,0-70.4-.283-106.322-.547-36.057-.262-73.334-.566-106.849-.566-74.408,0-180.376-9.42-205.468-21.557C71.5,649.041,68.069,643,70.931,619.685c3.328-26.8,23.506-115.418,27.882-133.208,4.037-17.119,34.067-30.852,86.833-40.736,4.417-.831,8.98-1.621,13.721-2.4,54.959-8.975,131.166-14.283,225.869-15.509,4.629-.061,9.351-.1,14.062-.132,9.593-.091,19.291-.152,29.238-.152,9.461,0,19.125.051,28.887.132,3.56.03,6.224.041,7.9.041h1.9c1.66,0,4.324-.01,7.881-.041,12.389-.1,24.465-.109,36.326-.091q6,.015,11.912.041c91.734.527,167.455,4.649,224.818,12.044,3.252.425,6.4.861,9.514,1.3,34.279,4.812,61.438,10.879,80.928,18.123q3.6,1.34,6.826,2.714c16.826,7.188,26.691,15.413,28.91,24.651,4.123,18.051,21.1,112.036,23.877,132.3,3.32,24.131-5.553,31.728-13.637,35.658M129.049,405.2c40.124-27.481,77.245-46.962,120.534-59.432a1.635,1.635,0,1,0-.916-3.14c-43.888,12.611-81.449,32.386-122.054,60.263a101.417,101.417,0,0,1-10.261-11.377c41.471-25.719,81.043-41.278,134.442-54.355a1.648,1.648,0,1,0-.784-3.2c-53.871,13.209-93.751,28.911-135.587,54.883a80.554,80.554,0,0,1-6.038-9.906c42.839-23.005,91.406-39.791,145.18-50.072a1.628,1.628,0,0,0,1.3-1.935,1.645,1.645,0,0,0-1.93-1.307c-54.053,10.342-102.9,27.229-146.006,50.365-12.576-27.462-5.562-57.406,20.888-89.041l1.357-1.641c3.454-3.495,10.687-11.811,27.472-31.828,29.1-34.725,29.615-38.281,29.863-39.993l.152-1.033-.476-.932c-13-25.1-48.106-56.5-70.929-72.61a94.4,94.4,0,0,1,20.837-1.955c30,0,69.3,8.641,91.406,20.107l2.365,1.226,1.808-1.945c25.005-27.046,42.819-37.1,65.682-37.1,11.2,0,24.241,2.441,41.046,7.668l2.527.78,1.434-2.229c18.183-28.384,63.038-63.737,88.119-71.344-11.918,24.919-27.107,69.551-25.831,97.479l.041,1.043.653.831c3.88,4.943,50.882,24.6,73.647,33.813,3.135,1.276,5.789,2.35,7.83,3.15,2.679,1.063,4.3,1.691,4.381,1.691l1.448.628c32.041,12.48,51.146,30.875,57.4,54.5a68.218,68.218,0,0,1,2.035,12.1c.053.5.053,1.023.092,1.54-48.4,1.53-98.877,11.71-150.843,30.521a1.649,1.649,0,0,0,.547,3.2,1.6,1.6,0,0,0,.562-.111c51.667-18.71,101.83-28.809,149.906-30.329.041,1.671.021,3.373-.07,5.1-.111,2.522-.406,5.1-.779,7.678-48.947-1.155-94.289,5.622-143.134,20.8a1.643,1.643,0,0,0,.491,3.212,1.585,1.585,0,0,0,.484-.071c48.324-15.022,93.209-21.739,141.629-20.655-.092.577-.15,1.134-.264,1.712a111.262,111.262,0,0,1-3.441,13.037c-.041.142-.1.273-.145.4-48.23-3.931-90.013-2.107-133.623,9.339a1.651,1.651,0,0,0-1.18,2.006,1.669,1.669,0,0,0,1.6,1.236,1.935,1.935,0,0,0,.416-.061c42.925-11.264,84.123-13.1,131.637-9.3-6.93,19.287-19.146,39.3-35.109,58.388q-3.166,3.8-6.543,7.537a319.849,319.849,0,0,1-67.871,56.666c-90.439.79-183.309,5.31-249.821,17.605-22.409-8.649-42.471-19.872-57.564-33.588M100.614,200.56c-2.147-15.813-2.4-28.465-1.448-37.967.162-1.134.309-2.31.517-3.373,1.494-7.486,4-12.581,7.253-14.688l2.041-2.036c22.448,15.286,57.735,46.88,70.741,70.777-4.467,8.813-43.026,53.819-53.8,66.016-.051-.081-.091-.162-.142-.243-.978-1.55-1.9-3.191-2.821-4.822-10.272-19.034-18.609-46.172-22.337-73.664M438.843,52.715c.056,0,.116-.01.167-.01,3.383.79,7.334,3.768,11.558,8.752,5.27,6.22,10.611,15.225,15.569,25.8,11.771,27.117,21.379,65,20.774,94.683-.01.567.03,1.185.021,1.742-.486-.192-1.079-.436-1.621-.648-18.512-7.516-67-27.9-74.206-33.063-.664-27.279,15.053-73.107,27.117-96.841ZM558.775,274.872c.191-1.752.375-3.515.475-5.268.082-1.823.1-3.708.062-5.6,4.781-.071,9.543-.041,14.283.061a155.971,155.971,0,0,0-14.82,10.809M542.627,421.035q-13.905.015-27.572.111c-3.535.041-6.2.05-7.84.05h-1.9c-1.66,0-4.3-.01-7.839-.05-15.737-.111-31.762-.144-47.914-.062a331.421,331.421,0,0,0,56.617-47.823c5.1,17.009,18.317,33.41,36.448,47.774m322.26,26.733c-17.383-5.087-38.107-9.271-61.244-12.693a53.829,53.829,0,0,0,12.682-23.268c.479,1.5.881,3.019,1.4,4.5,4.518,12.672,17.018,16.8,28.08,20.451,5.9,1.937,11.486,3.778,14.482,6.6l3.1,2.986c.506.486.992.952,1.5,1.429M494.613,185.132c20.979-14.921,36.356-32.284,50.071-47.812,19.945-22.6,37.156-42.1,65.541-48.2,25.709-7.547,66.947-6.7,110.373,2.279,43.295,8.711,81.414,24.312,102.146,41.887,23.359,17.079,31.23,41.937,40.357,70.726,7.01,22.124,14.939,47.205,31.4,71.982,43.822,66.532,42.3,139.882-3.645,178.629-6.037,2.208-12.6-3.667-22.641-13.321l-3.15-3.009c-4.133-3.89-10.424-5.966-17.078-8.165-10-3.292-20.342-6.7-23.7-16.147-9.543-26.873-9.773-56.1-10.061-87.054-.2-26.115-.455-53.131-5.9-82.335a3.473,3.473,0,1,0-6.828,1.276c5.328,28.6,5.551,55.3,5.773,81.14.1,9.958.2,19.712.588,29.3-11.082-27.492-30.652-55.288-54.031-69.1a3.475,3.475,0,0,0-3.547,5.977c37.582,22.225,65.885,85.222,59.574,116-1.955,9.146-7.1,17.423-14.721,24.667-69.045-9.461-157.438-12.6-241.574-12.814-22.711-16.349-37.887-35.383-41.754-53.971,19.021-21.455,33.73-44.723,41.471-67.839,20.18,1.833,41.512,4.579,64.646,8.043a1.672,1.672,0,0,0,1.887-1.4,1.652,1.652,0,0,0-1.4-1.864c-22.883-3.414-44-6.149-64.02-7.982q1.605-5.273,2.732-10.5c1.844-1.671,3.729-3.3,5.633-4.883a553.406,553.406,0,0,1,57.7,5.936,1.691,1.691,0,0,0,1.873-1.377,1.653,1.653,0,0,0-1.377-1.874c-18.852-2.887-36.832-4.812-54.307-5.774a126.769,126.769,0,0,1,19.875-13c11.994.679,23.846,1.854,35.516,3.667a1.692,1.692,0,0,0,1.883-1.4,1.634,1.634,0,0,0-1.365-1.874c-9.826-1.5-19.773-2.573-29.8-3.3a60.232,60.232,0,0,1,11.82-3.606,3.488,3.488,0,1,0-1.275-6.858c-7.922,1.479-16.248,4.954-24.533,9.735-6.5-.233-13.027-.312-19.6-.223a76.7,76.7,0,0,0-1.781-12.663c7.506-15.65,15.9-31.473,26.609-47.113a3.48,3.48,0,1,0-5.745-3.93,338.614,338.614,0,0,0-23.867,41.33c-7.383-19.125-24.381-38.615-59.781-52.513.036-.227.011-.46.026-.683M944.658,617.861c-2.865-21.008-19.682-114.121-24-132.881-2.359-9.849-11.143-18.234-24.938-25.393,48.338-41.178,50.3-118.042,4.578-187.421-15.9-23.977-23.359-47.5-30.572-70.25-9.48-29.964-17.676-55.835-42.676-74.089-17.09-14.5-45.557-27.695-78.9-36.984,1.621-2.492,2.463-4.123,3.779-6.422,1.234-2.146,1.662-2.725,5.1-9.34.83-1.6.8-3.484-.646-4.568a3.14,3.14,0,0,0-4.561.648c-3.951,6.807-5.1,8.955-6.838,11.933-.6,1.043-1.418,2.441-2.785,4.67-.283.5-.508.912-.688,1.317-2.6-.668-5.287-1.206-7.922-1.823,1.4-2.036,2.088-3.353,3.211-5.308.75-1.287,1.914-3.647,5.045-9.269a3.427,3.427,0,0,0-.639-4.558,3.152,3.152,0,0,0-4.58.648c-2.633,4.66-4.436,7.84-5.691,10.2a37.976,37.976,0,0,1-4.186,6.4c-.068.081-.109.182-.172.273-1.273-.273-2.512-.587-3.758-.871,0-.03.01-.061.01-.1a40.161,40.161,0,0,1,.75-6.949c.617-3.859,1.4-5.541,1.9-13.108a3.21,3.21,0,0,0-3.2-3.323,3.451,3.451,0,0,0-3.322,3.191,63.751,63.751,0,0,1-1.844,12.49,37.664,37.664,0,0,0-.811,6.5c-2.807-.547-5.611-1.043-8.389-1.519.254-2.482.467-3.839.641-4.923.4-2.583.6-4.011.818-15.164a3.25,3.25,0,0,0-3.2-3.312,3.4,3.4,0,0,0-3.3,3.191c-.213,10.717-.4,11.983-.77,14.283-.162,1.094-.375,2.462-.629,4.883-2.514-.395-4.975-.668-7.455-1-.242-2.29-.445-3.616-.629-4.69-.346-2.32-.547-3.6-.748-14.172a3.262,3.262,0,0,0-6.523.142c.223,10.991.445,12.419.852,15.012.109.739.242,1.611.385,2.826-31.26-3.565-59.025-2.492-78.852,3.343-30.367,6.514-48.3,26.824-69.045,50.335-13.1,14.83-26.631,30.076-44.712,43.669-.436-22.174-6.025-47.751-13.995-70.3C470.167,73.653,454.8,46.707,440.515,45.715c-.5-.041-.993-.061-1.535-.061-24.094,0-77.837,39.5-101.03,73.826-16.3-4.913-29.255-7.2-40.6-7.2-1.58,0-3.135.041-4.66.132,1.443-9.745,4.66-17.454,19.054-27.037a3.262,3.262,0,0,0-3.616-5.43C290.821,91.471,287.514,101.509,286,113.118c-1.089.152-2.188.344-3.277.557a39.392,39.392,0,0,0-3.019-9.238c-3.206-7.587-4.721-12.125,1.388-17.15a3.259,3.259,0,1,0-4.138-5.035c-10.175,8.357-6.179,17.818-3.256,24.727a30.763,30.763,0,0,1,2.649,8.286,69.637,69.637,0,0,0-11,4.447c-1.246-9.177-4.3-17.919-16.122-27.836a3.259,3.259,0,1,0-4.189,4.994c11.188,9.4,13.2,16.978,14.146,26.257-9.689,5.966-19.626,14.627-30.86,26.56-23.6-11.487-61.8-19.7-92.237-19.7-10.818,0-25.411,1.124-33.489,6.523-8.043,5.369-10.5,19.9-10.813,34.218-1.261,24.221,4.452,58.034,15.955,86.721a153.312,153.312,0,0,0,13.083,27.016c-26.712,32.9-33.641,65.662-20.042,94.886a411.532,411.532,0,0,0-52.735,34.857,1.643,1.643,0,0,0,1.018,2.938,1.6,1.6,0,0,0,1-.344,403.61,403.61,0,0,1,52.208-34.512,85.459,85.459,0,0,0,6.276,10.261C92.442,402.871,75.961,414.7,58.183,428.6A1.644,1.644,0,0,0,60.2,431.2c17.763-13.868,34.213-25.68,50.279-35.971a106,106,0,0,0,10.383,11.668c-16.243,11.377-33.028,24-50.973,38.018a1.654,1.654,0,0,0,1.018,2.95,1.686,1.686,0,0,0,1.008-.354c18.1-14.141,35.009-26.854,51.363-38.28,13.716,12.692,31.377,23.38,51.181,31.979-46.182,9.725-77.28,23.78-81.985,43.755C88.087,502.773,67.822,591.814,64.459,618.9,61.8,640.619,63.4,652.371,79.75,660.291c28.439,13.758,140.48,22.205,208.3,22.205,33.484,0,70.762.283,106.809.547,35.92.283,73.086.568,106.363.568H508.3c33.484,0,71.127-.285,107.514-.568,36.4-.264,74.039-.547,107.486-.547,63.625,0,170.506-5.916,204.115-22.225,14.787-7.158,20.258-20.65,17.248-42.41m-602.6-414.88a3.334,3.334,0,0,0,2.249-.892c16.606-15.771,36.71-22.751,56.585-19.743a3.254,3.254,0,0,0,.98-6.433c-21.926-3.363-43.958,4.265-62.06,21.435a3.267,3.267,0,0,0,2.246,5.633m-25.475,174.3c-5.75-4.589-7.836-11.3-9.265-17.687-.334-1.317-.653-2.856-.988-4.457-2.259-10.9-4.7-19.206-13.7-19.206a24.04,24.04,0,0,0-7.167,1.276c-8.292,2.775-13.164,7.658-13.675,13.766-.608,7.253,5.105,15.022,14.9,20.25a21.412,21.412,0,0,0,3.4,1.469c-1.433-4.011-4.128-8.985-5.125-14.313-.755-4.083-.162-8.013,1.58-9.593,2.634-2.391,4.913-.982,6.038,1.489.932,2.087,1.043,7.263,4.792,12.075a124.532,124.532,0,0,1,9.669,14.02c3.427.466,6.77.8,9.542.911m-2.306-70.169c-.623-2.512-2.188-4.072-3.434-3.748-1.557.3-2.5,2.168-1.879,4.67.322,2.2,1.879,4.072,3.442,3.748s2.19-2.5,1.871-4.67m88.14,35.921a3.258,3.258,0,0,1-1.979,4.163c-6.1,2.147-11.145,7.172-16.005,12.024a68.869,68.869,0,0,1-11.474,9.5c-6.451,4.072-10.976,4.933-16.051,4.8a16.2,16.2,0,0,1-6.265-1.3,16.771,16.771,0,0,1-4.832-3.424,18.454,18.454,0,0,1-2.385,6.634c-2.347,3.789-6.038,6.1-11.73,7.426a51.9,51.9,0,0,1-8.856,1.074c-1.4,0-2.422-.071-3.852-.071-9.451,0-28.434-2.765-35.495-6.979-12-6.382-19.029-16.552-18.208-26.458.74-8.732,7.354-15.812,18.153-19.419a30.13,30.13,0,0,1,9.193-1.6c15.017,0,18.066,14.678,20.083,24.393.31,1.529.612,2.968.941,4.3,2.056,9.106,4.8,14.171,12.323,17.23a9.677,9.677,0,0,0,4.224.831,8.435,8.435,0,0,0,3.725-.74,9.545,9.545,0,0,0,4.543-3.556,13.508,13.508,0,0,0,1.662-8.2,48.281,48.281,0,0,0-1.742-5.946c-3.644-10.333-5.293-14.557-9.816-27.219-10.93-1.368-29.7-5.754-33.671-19.763a18.516,18.516,0,0,1,2.107-15.033c6.184-10.4,18.684-15.549,24.509-17.038a41.39,41.39,0,0,1,7.023-1c7.82-.425,28.753,1.236,31.7,15.083,2.188,10.6-4.67,22.3-20.219,34.816,2.254,10.312,3.166,14.617,5.312,24.544a70,70,0,0,0,2.229,8.013,9.8,9.8,0,0,0,5.759,6.149c4.087,1.458,9.334,1.175,16.593-3.09,3.748-2.208,6.453-5.125,9.907-8.57,5.126-5.115,10.945-10.93,18.446-13.563a3.261,3.261,0,0,1,4.147,1.986m-118.16-45.959c-2.077-12.51-13.265-36.619-36.417-36.619a43.357,43.357,0,0,0-18.436,4.609c-2.6,8.894-1.692,16.471,2.74,22.519a29.351,29.351,0,0,0,12.531,9.319c-2.345-3.981-3.135-10.282-1.555-16.957,2.188-10.626,9.046-18.426,15.286-17.474,5.926.922,9.36,10.282,7.162,20.918-1.8,7.709-5.926,14.06-10.333,16.6a57.022,57.022,0,0,0,9.907.9c7.208,0,14.076-1.368,19.115-3.819m3.571,3.241c-5.875,3.282-13.934,5.1-22.686,5.1-12.358,0-28.465-4-36.64-15.174-5.4-7.364-6.483-16.866-3.12-27.462l.289-.922.861-.425c7.4-3.657,14.572-5.5,21.308-5.5,27.143,0,39.6,28.951,41.127,42.15l.177,1.489ZM394.51,220.343c-12.6,1.064-21.987,5.622-27.994,13.493a7.222,7.222,0,0,1,1.448-1.651c4.68-3.728,14.678-.293,21.858,7.81,4.438,5.035,6.844,10.657,6.918,15.174a33.437,33.437,0,0,0,5.257-9.1c3.387-9.259.865-17.92-7.487-25.73m-5.921,42.93c-5.116-.2-11.515-3.525-16.567-9.228-6.255-7.081-8.474-15.337-5.642-20.027-.6.8-1.19,1.581-1.724,2.441-7.84,12.773-6.1,29.376-2.8,38.453,8.333-.708,18.509-5.115,26.734-11.639m17.646-15.65c-6.5,17.707-29.543,31.453-45.822,31.9l-1.544.041-.6-1.428c-4.006-9.5-6.64-29.083,2.537-44.034,6.787-11.052,18.34-17.21,34.345-18.335l.958-.071.7.638c13,11.639,12.292,23.44,9.42,31.291M205.817,234.231a3.178,3.178,0,0,1-2.041.729,3.258,3.258,0,0,1-2.057-5.795c16.329-13.24,38.58-17.14,62.714-10.971a3.257,3.257,0,1,1-1.616,6.311c-22.386-5.722-42.094-2.359-57,9.726m518.712-84.786a3.2,3.2,0,0,1,3.322-3.211c21.271.344,40.742,12.956,54.762,35.525a3.276,3.276,0,0,1-1.033,4.5,3.381,3.381,0,0,1-1.74.486,3.248,3.248,0,0,1-2.758-1.529c-12.822-20.625-30.34-32.152-49.332-32.466a3.267,3.267,0,0,1-3.221-3.3m-4.4,261.784a55.4,55.4,0,0,1-17.363-.364c3.93-6.422,12.268-11.649,13.838-19.552.6-3.059-.152-5.114-2.311-6.27-4.355-2.34-5.553,2.249-8.021,5.663a17.821,17.821,0,0,1-5.146,4.417c-4.377,2.532-10.068,4.994-13.7,9.553a36.866,36.866,0,0,1-11.854-13.929,32.348,32.348,0,0,1-1.967-5.116c13.516-1.2,28.893-9.775,39.629-16.907,12.34-8.185,22.977-15.235,32.721-11.112,4.225,1.864,6.359,4.852,6.645,9.1.942,13.949-18.619,36.122-32.476,44.52M656.072,265.9c-.629,3.748-3.443,6.24-5.938,5.926-2.188-.618-3.748-4.356-2.807-8.114.922-3.728,3.424-6.24,5.9-5.926,2.517.628,3.792,4.376,2.841,8.114m98.776,131.455A92.887,92.887,0,0,1,739.6,405.6c-1.316.576-2.613,1.084-3.91,1.58,13.027-11.387,24.189-28.039,23.43-40.844-.4-6.736-4.041-11.821-10.562-14.7-13-5.511-25.588,2.826-38.9,11.669-11.629,7.709-23.49,15.662-36.873,15.376l-.729-.01c-1.094-6.97-1.3-15.448-.771-25.354a207.538,207.538,0,0,1,3.021-23.947c17.787-5.977,47.355-25.183,51.055-44.43,4.041-20.816-20.4-38.868-37.553-41.157-16.562-4.923-46.383,1.641-51.062,22.5-4.682,19.631,16.156,50.436,30.1,62.167a219.638,219.638,0,0,1-8.822,24.413c-6.838,15.225-13.676,26.033-20.949,31.32a36.014,36.014,0,0,1-31.746,5.957c-12.355-3.312-23.115-11.133-31.979-22.053a92.1,92.1,0,0,1-9.775-14.3c-1.135-1.975-3.02-5.663-5.662-4.224-3.027,1.661-1.529,5.521.658,9.259A81.514,81.514,0,0,0,571.8,376.9c6.625,7.061,15.217,15.215,29.113,19.854,11.053,3.688,25.365,2.867,35.291-3.312,9.908-6.169,18.072-16.1,25.123-30.217.83-1.641,1.611-3.312,2.369-4.994-.039.932-.1,1.854-.1,2.8-.186,15.781,2.529,28.333,8.527,38.361s18.334,17.3,29.842,19.084c14.477,2.239,25.854-1.074,34.971-4.326a80.921,80.921,0,0,0,20.047-10.018c3.676-2.32,6.756-5.074,4.832-7.932-1.7-2.492-5.073-.07-6.967,1.156M684.373,195.961a23.277,23.277,0,0,1,.135,18.011,18.57,18.57,0,0,1-.861,1.752,18.3,18.3,0,1,0-28.554,12.024c-.576-.182-1.146-.293-1.711-.517a23.818,23.818,0,0,1-13.272-31.139,24.087,24.087,0,0,1,22.225-14.678,23.435,23.435,0,0,1,8.914,1.742,23.771,23.771,0,0,1,13.124,12.8m-48.461-1.56a28.451,28.451,0,0,0,.193,21.79,28.126,28.126,0,0,0,15.57,15.215,27.554,27.554,0,0,0,10.572,2.086,28.631,28.631,0,0,0,26.439-17.828,27.7,27.7,0,0,0-.162-21.455,28.153,28.153,0,0,0-15.6-15.235,27.853,27.853,0,0,0-10.6-2.086A28.71,28.71,0,0,0,635.912,194.4M612.33,169.988a3.258,3.258,0,0,1-4.595.293,3.282,3.282,0,0,1-.283-4.619c17.3-19.51,38.451-28.15,59.543-24.312a3.259,3.259,0,0,1-1.176,6.412c-18.723-3.4-37.766,4.489-53.489,22.226m93.053,47.519c.283-12.743,10.707-23.116,23.219-23.116.354,0,.719.01,1.133.021a23.619,23.619,0,0,1,23.109,24.676,23.911,23.911,0,0,1-23.826,23.106h-.486c-.75-.03-1.469-.213-2.2-.3a18.511,18.511,0,0,0,14.951-17.5,18.234,18.234,0,0,0-35.816-5.3,12.136,12.136,0,0,1-.087-1.581m22.994,29.2.639.01a28.443,28.443,0,0,0,28.334-27.482A28.135,28.135,0,0,0,729.9,189.9c-15.457-.709-28.666,11.893-29.021,27.442a27.374,27.374,0,0,0,7.256,19.885,28.973,28.973,0,0,0,20.245,9.481"/>
</svg>

