<svg version="1.1" xmlns="http://www.w3.org/2000/svg" viewBox="0 0 628.97241 220.14566">
    <g transform="translate(199.616,157.7475)">
        <path fill="#ec1b24" d="M -126.60518,-79.975126 L -119.14543,-116.95667 L -169.6181,-116.95667 L -199.61602,47.635004 L -147.39743,47.635004 L -128.82729,-40.136631 C -128.82729,-40.136631 -115.33608,-81.244878 -82.163826,-72.356606 L -72.640648,-121.08337 C -72.640648,-121.08337 -113.11409,-124.09903 -126.60518,-79.975126 C -140.09636,-36.009943 -126.60518,-79.975126 -126.60518,-79.975126 M 33.701156,3.0349546 C 19.098898,10.653463 0.68755047,14.304005 -12.486121,14.304005 C -42.801549,14.304005 -49.30893,0.6541642 -48.197991,-16.963652 L 53.699714,-16.963652 C 56.556688,-26.645517 59.572342,-40.93024 60.20721,-47.596442 C 64.968813,-96.958075 38.621412,-118.38514 0.84626011,-118.54387 C -63.276293,-118.54387 -91.052109,-60.293965 -94.54395,-22.518815 C -98.511862,18.430704 -75.815126,51.761707 -27.723247,51.761707 C -13.279812,51.761707 5.4491541,48.746046 23.543111,42.714725 L 33.701156,3.0349546 z M -42.007858,-48.866193 C -36.928921,-64.420652 -23.75522,-80.927441 -2.1694231,-80.927441 C 15.924562,-80.927441 20.686137,-66.325285 18.940217,-48.866193 M 149.08992,47.793728 L 190.51548,47.793728 C 196.22943,-1.2504687 209.08563,-37.755855 209.08563,-63.468349 C 209.08563,-103.46555 180.35758,-118.70258 145.43926,-118.70258 C 122.74252,-118.70258 106.71185,-114.89332 91.792257,-109.33815 L 86.713291,-68.388631 C 103.69619,-78.070493 116.07635,-81.244878 134.32898,-81.244878 C 150.83573,-81.244878 161.31125,-71.880449 161.31125,-60.293965 C 161.31125,-58.071898 161.31125,-55.849829 160.67639,-53.786472 C 153.6927,-54.262632 143.53466,-55.214947 133.37661,-55.214947 C 88.776574,-55.214947 52.747342,-35.533786 52.747342,4.4634185 C 52.747342,36.048523 70.206431,51.602983 101.63291,51.602983 C 121.31399,51.602983 140.20161,43.825753 150.83573,25.096909 L 150.83573,24.462025 L 151.4706,25.096909 L 149.08992,47.793728 z M 100.52186,-2.2027722 C 100.52186,-16.487494 118.29831,-26.169357 142.4236,-25.217042 C 145.43926,-25.217042 151.62939,-25.217042 155.91481,-24.264724 C 152.26426,-2.5202201 139.40795,14.145281 117.66344,14.145281 C 107.02935,14.145281 100.52186,5.4157335 100.52186,-2.2027722 M 198.13403,47.635004 L 249.24159,47.635004 L 287.17543,-157.74748 L 235.90921,-157.74748" />
        <path fill="#1d5cb2" d="M 253.68566,47.476295 L 294.15911,47.476295 L 333.20402,-24.264724 L 283.04872,-24.264724" />
        <path fill="#1d5cb2" transform="translate(-251.3813,192.064)" d="M 562.375,-262.34375 L 553.625,-221.09375 L 585.21875,-221.09375 L 629.65625,-221.09375 L 661.09375,-221.09375 L 670.125,-262.34375 L 638.5625,-262.34375 L 593.9375,-262.34375 L 562.375,-262.34375 z" />
    </g>
</svg>

